<?xml version="1.0" encoding="UTF-8" standalone="no"?>
<svg
   xmlns:dc="http://purl.org/dc/elements/1.1/"
   xmlns:cc="http://creativecommons.org/ns#"
   xmlns:rdf="http://www.w3.org/1999/02/22-rdf-syntax-ns#"
   xmlns:svg="http://www.w3.org/2000/svg"
   xmlns="http://www.w3.org/2000/svg"
   xmlns:xlink="http://www.w3.org/1999/xlink"
   width="32mm"
   height="32mm"
   viewBox="0 0 32 32"
   version="1.1"
   id="svg8">
  <defs
     id="defs2">
    <linearGradient
       id="linearGradient847">
      <stop
         id="stop843"
         offset="0"
         style="stop-color:#f0f0f0;stop-opacity:1;" />
      <stop
         id="stop845"
         offset="1"
         style="stop-color:#f0f0f0;stop-opacity:0;" />
    </linearGradient>
    <rect
       id="rect835"
       height="80.130951"
       width="139.8512"
       y="114.90476"
       x="30.238094" />
    <linearGradient
       gradientTransform="translate(-56.501877,-93.88348)"
       gradientUnits="userSpaceOnUse"
       y2="143.63095"
       x2="79.339333"
       y1="143.63095"
       x1="58.257465"
       id="linearGradient849"
       xlink:href="#linearGradient847" />
  </defs>
  <metadata
     id="metadata5">
    <rdf:RDF>
      <cc:Work
         rdf:about="">
        <dc:format>image/svg+xml</dc:format>
        <dc:type
           rdf:resource="http://purl.org/dc/dcmitype/StillImage" />
        <dc:title></dc:title>
      </cc:Work>
    </rdf:RDF>
  </metadata>
  <g
     id="layer1">
    <circle
       r="16"
       cy="16"
       cx="15.999998"
       id="path851"
       style="fill:#f0f0f0;fill-opacity:1;stroke:none;stroke-width:0.264999" />
    <g
       style="font-style:normal;font-variant:normal;font-weight:bold;font-stretch:normal;font-size:12.7px;line-height:7.93748px;font-family:'Source Serif Pro';-inkscape-font-specification:'Source Serif Pro Bold';letter-spacing:0px;word-spacing:0px;fill:#353434;fill-opacity:1;stroke:#000000;stroke-width:0.265;stroke-linecap:butt;stroke-linejoin:miter;stroke-miterlimit:4;stroke-dasharray:none;stroke-opacity:1"
       id="text841"
       aria-label="prk3">
      <path
         d="m 25.416946,14.647499 v 0.7112 h 0.4445 c 1.0541,0 1.6256,0.5715 1.6256,1.6256 0,1.1684 -0.5842,1.7145 -1.7145,1.7145 -0.1016,0 -0.1905,0 -0.2921,-0.0254 l -0.1143,-0.8509 c -0.1143,-0.8636 -0.4191,-1.1303 -0.9398,-1.1303 -0.3048,0 -0.635,0.1651 -0.7874,0.5715 0.0635,1.3335 1.0033,2.0955 2.7686,2.0955 1.9939,0 3.1623,-0.9779 3.1623,-2.3114 0,-1.1049 -0.5588,-1.8415 -2.0447,-2.1082 1.2827,-0.3429 1.8034,-1.143 1.8034,-1.9431 0,-1.1557 -0.9144,-2.032 -2.794,-2.032 -1.3081,0 -2.4511,0.5842 -2.5146,1.9685 0.1397,0.254 0.4064,0.4064 0.7112,0.4064 0.4572,0 0.8382,-0.2286 0.9398,-0.8763 l 0.127,-0.8255 c 0.0889,-0.0127 0.1651,-0.0127 0.2413,-0.0127 0.8255,0 1.2954,0.4826 1.2954,1.4478 0,1.1049 -0.5842,1.5748 -1.5494,1.5748 z m -9.575794,4.5212 h 3.454399 v -0.5969 l -0.6858,-0.1397 c 0,-0.5715 -0.0127,-1.2954 -0.0127,-1.8542 l 0.4699,-0.4445 1.4351,3.0353 h 2.5908 v -0.5969 l -0.8128,-0.1905 -1.7907,-3.5687 1.1176,-1.0541 1.143,-0.1651 v -0.5588 h -3.0607 v 0.5588 l 0.9652,0.1524 -2.0574,2.0066 v -3.8989 l 0.0508,-1.778 -0.2032,-0.1269996 -2.666999,0.5714996 v 0.5334 l 0.7874,0.127 v 5.3213 c 0,0.508 0,1.2954 -0.0127,1.9177 l -0.7112,0.1524 z m -5.587976,0 h 3.7592 v -0.5969 l -1.0033,-0.2159 c -0.0127,-0.5969 -0.0127,-1.3335 -0.0127,-1.8542 v -0.8636 c 0.127,-0.5842 0.4699,-1.1684 0.8509,-1.524 l 0.0762,0.1016 c 0.3048,0.4064 0.5969,0.5969 0.9779,0.5969 0.508,0 0.8763,-0.381 0.9017,-1.0414 -0.1016,-0.6223 -0.5461,-0.9398 -1.1049,-0.9398 -0.6223,0 -1.3462,0.5588 -1.7018,1.6383 l -0.1143,-1.4986 -0.2286,-0.1397 -2.5019,0.8509 v 0.4953 l 0.7747,0.1143 c 0.0254,0.508 0.0381,0.762 0.0381,1.4605 v 0.7493 c 0,0.5334 0,1.3081 -0.0127,1.9304 l -0.6985,0.1397 z m -7.734276,2.8829 h 3.5559999 v -0.5969 l -0.8128,-0.1905 c -0.0127,-0.7747 -0.0254,-1.4478 -0.0254,-2.0701 v -0.4953 c 0.4191,0.4445 0.9398,0.6604 1.6002,0.6604 1.4351,0 2.7177999,-1.2446 2.7177999,-3.2893 0,-2.1082 -1.1048999,-3.2385 -2.4891999,-3.2385 -0.7112,0 -1.3335,0.2667 -1.8796,0.8382 l -0.0508,-0.7112 -0.2159,-0.127 L 2.43,13.682299 v 0.4953 l 0.7873999,0.1143 c 0.0254,0.508 0.0381,0.7747 0.0381,1.4732 v 3.4417 c 0,0.6223 -0.0127,1.2954 -0.0254,2.0955 L 2.5189,21.454699 Z m 3.6194999,-8.1153 c 0.7493,0 1.2573,0.6604 1.2573,2.159 0,1.5113 -0.5334,2.1971 -1.2954,2.1971 -0.3175,0 -0.5842,-0.1143 -0.8255,-0.3175 v -3.683 c 0.2667,-0.2032 0.5461,-0.3556 0.8636,-0.3556 z"
         style="font-style:normal;font-variant:normal;font-weight:bold;font-stretch:normal;font-size:12.7px;font-family:'Source Serif Pro';-inkscape-font-specification:'Source Serif Pro Bold';fill:#353434;fill-opacity:1;stroke:none;stroke-width:0.265;stroke-miterlimit:4;stroke-dasharray:none"
         id="path972" />
    </g>
  </g>
</svg>
