<?xml version="1.0" encoding="UTF-8" standalone="no"?>
<svg
   xmlns:dc="http://purl.org/dc/elements/1.1/"
   xmlns:cc="http://creativecommons.org/ns#"
   xmlns:rdf="http://www.w3.org/1999/02/22-rdf-syntax-ns#"
   xmlns:svg="http://www.w3.org/2000/svg"
   xmlns="http://www.w3.org/2000/svg"
   id="svg385"
   version="1.1"
   viewBox="0 0 11.493 11.209"
   height="11.209mm"
   width="11.493mm">
  <defs
     id="defs379" />
  <metadata
     id="metadata382">
    <rdf:RDF>
      <cc:Work
         rdf:about="">
        <dc:format>image/svg+xml</dc:format>
        <dc:type
           rdf:resource="http://purl.org/dc/dcmitype/StillImage" />
        <dc:title></dc:title>
      </cc:Work>
    </rdf:RDF>
  </metadata>
  <g
     id="layer1">
    <path
       d="M 5.7460404,0 C 2.57281,0 0,2.572808 0,5.746749 c 0,2.5389421 1.64641,4.692651 3.92994,5.452887 0.28752,0.05256 0.39229,-0.124884 0.39229,-0.277284 0,-0.136172 -0.005,-0.497769 -0.008,-0.9771939 C 2.7158,10.292291 2.37854,9.1746911 2.37854,9.1746911 2.11713,8.5111161 1.74037,8.3343741 1.74037,8.3343741 c -0.52176,-0.356658 0.0395,-0.349602 0.0395,-0.349602 0.57679,0.04092 0.88018,0.592314 0.88018,0.592314 0.51258,0.878063 1.34514,0.624416 1.67252,0.477661 0.0522,-0.371475 0.20037,-0.62477 0.3647704,-0.76835 C 3.42134,8.1414051 2.07973,7.6482221 2.07973,5.446183 c 0,-0.627239 0.22401,-1.140178 0.59161,-1.541992 -0.0593,-0.145344 -0.25647,-0.729544 0.0561,-1.520825 0,0 0.4826,-0.154516 1.58044,0.589139 C 4.7661404,2.845152 5.2579104,2.7813 5.7465104,2.779183 c 0.48789,0.0021 0.979661,0.06597 1.438631,0.193322 1.09714,-0.743655 1.57868,-0.589139 1.57868,-0.589139 0.31362,0.791281 0.11642,1.375481 0.0572,1.520825 0.3683,0.401814 0.5909,0.914753 0.5909,1.541992 0,2.2076831 -1.34373,2.6934581 -2.62396,2.8356281 0.20638,0.177447 0.39017,0.528108 0.39017,1.06433 0,0.7679979 -0.007,1.3878279 -0.007,1.5762109 0,0.153812 0.10337,0.33267 0.39511,0.276578 C 9.8480114,10.437283 11.493021,8.2849861 11.493021,5.746749 11.493021,2.572808 8.9198614,0 5.7459104,0"
       style="fill:#f0f0f0;fill-opacity:1;fill-rule:evenodd;stroke:none;stroke-width:0.352777"
       id="path24" />
  </g>
</svg>
